<svg width="20" height="20" viewBox="0 0 20 20" fill="none" xmlns="http://www.w3.org/2000/svg">
<path d="M5.00008 16.6667H15.0001C15.4584 16.6667 15.8334 17.0417 15.8334 17.5001C15.8334 17.9584 15.4584 18.3334 15.0001 18.3334H5.00008C4.54175 18.3334 4.16675 17.9584 4.16675 17.5001C4.16675 17.0417 4.54175 16.6667 5.00008 16.6667ZM10.0001 5.83341C9.08341 5.83341 8.33341 6.58341 8.33341 7.50008C8.33341 8.41675 9.08341 9.16675 10.0001 9.16675C10.9167 9.16675 11.6667 8.41675 11.6667 7.50008C11.6667 6.58341 10.9167 5.83341 10.0001 5.83341ZM10.0001 1.66675C12.7251 1.66675 15.8334 3.71675 15.8334 7.62508C15.8334 10.1084 14.0584 12.7251 10.5084 15.4501C10.2084 15.6834 9.79175 15.6834 9.49175 15.4501C5.94175 12.7167 4.16675 10.1084 4.16675 7.62508C4.16675 3.71675 7.27508 1.66675 10.0001 1.66675Z" fill="white"/>
</svg>
