<svg width="38" height="35" viewBox="0 0 38 35" fill="none" xmlns="http://www.w3.org/2000/svg">
<path d="M2.41325 34.6667H3.58658C4.73325 34.6667 5.66658 33.7067 5.66658 32.5067V29.3333H32.3333V32.5067C32.3333 33.7067 33.2399 34.6667 34.4133 34.6667H35.5866C36.7332 34.6667 37.6666 33.7067 37.6666 32.5067V15.1733L33.5066 2.66667C33.3733 2.24 33.1866 1.89333 32.9999 1.6C32.9466 1.54667 32.9199 1.49333 32.8666 1.41333C31.8533 0.0266666 30.4133 0 30.4133 0H7.58659C7.58659 0 6.14659 0.0266666 5.13325 1.44C5.07992 1.49333 5.05325 1.54667 4.99992 1.6C4.81325 1.89333 4.62659 2.24 4.49325 2.66667L0.333252 15.1733V32.5067C0.333252 33.7067 1.26659 34.6667 2.41325 34.6667ZM9.21325 5.33333H28.7866L29.3999 7.17333L30.5466 10.6667H7.45325L9.21325 5.33333ZM5.66658 16.0267V16H32.3333V24H5.66658V16.0267Z" fill="#333333"/>
</svg>
