<svg width="88" height="88" viewBox="0 0 88 88" fill="none" xmlns="http://www.w3.org/2000/svg">
<rect width="88" height="88" rx="10" fill="white"/>
<path d="M32.7821 42.6666C34.7647 42.6666 36.3719 41.0513 36.3719 39.0588C36.3719 37.0662 34.7647 35.4509 32.7821 35.4509C30.7996 35.4509 29.1924 37.0662 29.1924 39.0588C29.1924 41.0513 30.7996 42.6666 32.7821 42.6666Z" fill="#333333"/>
<path d="M54.3205 42.6666C56.303 42.6666 57.9102 41.0513 57.9102 39.0588C57.9102 37.0662 56.303 35.4509 54.3205 35.4509C52.3379 35.4509 50.7307 37.0662 50.7307 39.0588C50.7307 41.0513 52.3379 42.6666 54.3205 42.6666Z" fill="#333333"/>
<path d="M21.2231 58.902H22.8026C24.3462 58.902 25.6026 57.6031 25.6026 55.9796V51.6863H61.5V55.9796C61.5 57.6031 62.7205 58.902 64.3 58.902H65.8795C67.4231 58.902 68.6795 57.6031 68.6795 55.9796V32.5286L63.0795 15.6078C62.9 15.0306 62.6487 14.5616 62.3975 14.1647C62.3257 14.0925 62.2898 14.0204 62.218 13.9122C60.8539 12.0361 58.9154 12 58.9154 12H28.1872C28.1872 12 26.2487 12.0361 24.8846 13.9482C24.8128 14.0204 24.7769 14.0925 24.7051 14.1647C24.4539 14.5616 24.2026 15.0306 24.0231 15.6078L18.4231 32.5286V55.9796C18.4231 57.6031 19.6795 58.902 21.2231 58.902ZM30.3769 19.2157H56.7257L57.5513 21.7051L59.0949 26.4314H28.0077L30.3769 19.2157ZM25.6026 33.6831V33.6471H61.5V44.4706H25.6026V33.6831Z" fill="#333333"/>
<path d="M9 66.7254V65.5458C9 63.889 10.3431 62.5458 12 62.5458H75.5513C77.2081 62.5458 78.5513 63.889 78.5513 65.5458V66.7254C78.5513 68.3823 77.2081 69.7254 75.5513 69.7254H49.0385C48.4862 69.7254 48.0385 70.1732 48.0385 70.7254V77.549C48.0385 79.2058 46.6953 80.549 45.0385 80.549H43.859C42.2021 80.549 40.859 79.2058 40.859 77.549V70.7254C40.859 70.1732 40.4113 69.7254 39.859 69.7254H12C10.3431 69.7254 9 68.3823 9 66.7254Z" fill="#4762FF"/>
</svg>
