<svg width="102" height="51" viewBox="0 0 102 51" fill="none" xmlns="http://www.w3.org/2000/svg">
<path d="M13.9999 22.6667C15.4727 22.6667 16.6666 21.4728 16.6666 20C16.6666 18.5273 15.4727 17.3333 13.9999 17.3333C12.5272 17.3333 11.3333 18.5273 11.3333 20C11.3333 21.4728 12.5272 22.6667 13.9999 22.6667Z" fill="#333333"/>
<path d="M29.9999 22.6667C31.4727 22.6667 32.6666 21.4728 32.6666 20C32.6666 18.5273 31.4727 17.3333 29.9999 17.3333C28.5272 17.3333 27.3333 18.5273 27.3333 20C27.3333 21.4728 28.5272 22.6667 29.9999 22.6667Z" fill="#333333"/>
<path d="M5.41325 34.6667H6.58658C7.73325 34.6667 8.66658 33.7067 8.66658 32.5067V29.3333H35.3333V32.5067C35.3333 33.7067 36.2399 34.6667 37.4133 34.6667H38.5866C39.7332 34.6667 40.6666 33.7067 40.6666 32.5067V15.1733L36.5066 2.66667C36.3733 2.24 36.1866 1.89333 35.9999 1.6C35.9466 1.54667 35.9199 1.49333 35.8666 1.41333C34.8533 0.0266666 33.4133 0 33.4133 0H10.5866C10.5866 0 9.14659 0.0266666 8.13325 1.44C8.07992 1.49333 8.05325 1.54667 7.99992 1.6C7.81325 1.89333 7.62659 2.24 7.49325 2.66667L3.33325 15.1733V32.5067C3.33325 33.7067 4.26659 34.6667 5.41325 34.6667ZM12.2133 5.33333H31.7866L32.3999 7.17333L33.5466 10.6667H10.4533L12.2133 5.33333ZM8.66658 16.0267V16H35.3333V24H8.66658V16.0267Z" fill="#333333"/>
<path d="M48.3332 42.6667H3.31984C1.85444 42.6667 0.666504 41.4787 0.666504 40.0133C0.666504 38.5479 1.85444 37.36 3.31983 37.36H98.6798C100.145 37.36 101.333 38.5479 101.333 40.0133C101.333 41.4787 100.145 42.6667 98.6798 42.6667H55.6665C55.1142 42.6667 54.6665 43.1144 54.6665 43.6667V48C54.6665 49.4727 53.4726 50.6667 51.9998 50.6667C50.5271 50.6667 49.3332 49.4727 49.3332 48V43.6667C49.3332 43.1144 48.8855 42.6667 48.3332 42.6667Z" fill="#4762FF"/>
<path d="M49.12 12.632H50.544V15H44.768V12.632H46.192V6.168H44.896V3.8H50.416V6.168H49.12V12.632ZM59.8245 11.016L62.0165 14.568V14.984H58.9125L56.9925 11.48H55.4565V14.984H52.5285V3.784C52.5392 3.784 53.3605 3.784 54.9925 3.784C56.6352 3.77333 57.4565 3.77333 57.4565 3.784C58.7258 3.784 59.7125 4.17867 60.4165 4.968C61.1312 5.75733 61.4885 6.68533 61.4885 7.752C61.4672 9.18133 60.9125 10.2693 59.8245 11.016ZM55.4085 9.096H57.4405C57.8245 9.096 58.1232 8.95733 58.3365 8.68C58.5498 8.40267 58.6565 8.072 58.6565 7.688C58.6565 7.304 58.5498 6.984 58.3365 6.728C58.1338 6.46133 57.8352 6.328 57.4405 6.328H55.4085V9.096ZM74.4554 9.4C74.4554 11.1067 73.9167 12.504 72.8394 13.592C71.7727 14.6693 70.3914 15.208 68.6954 15.208C67.938 15.208 67.218 15.0853 66.5354 14.84C65.8634 14.5947 65.2554 14.2373 64.7114 13.768C64.178 13.2987 63.7514 12.6907 63.4314 11.944C63.122 11.1867 62.9674 10.3387 62.9674 9.4C62.9674 8.16267 63.25 7.096 63.8154 6.2C64.3807 5.29333 65.09 4.632 65.9434 4.216C66.8074 3.78933 67.7407 3.576 68.7434 3.576C69.4687 3.576 70.1674 3.704 70.8394 3.96C71.522 4.20533 72.13 4.56267 72.6634 5.032C73.2074 5.50133 73.6394 6.11467 73.9594 6.872C74.29 7.61867 74.4554 8.46133 74.4554 9.4ZM65.8954 9.4C65.8954 10.3493 66.1727 11.096 66.7274 11.64C67.282 12.1733 67.9434 12.44 68.7114 12.44C69.4687 12.44 70.1247 12.1733 70.6794 11.64C71.2447 11.096 71.5274 10.3493 71.5274 9.4C71.5274 8.45067 71.25 7.70933 70.6954 7.176C70.1407 6.632 69.49 6.36 68.7434 6.36C67.954 6.36 67.282 6.62667 66.7274 7.16C66.1727 7.68267 65.8954 8.42933 65.8954 9.4ZM85.0785 15.032L79.1905 9.224V15H76.2625V3.752H77.1745L83.0145 9.272V3.8H85.9425V15.032H85.0785ZM54.528 31H51.6V26.52H48.128V31H45.2V19.8H48.128V23.848H51.6V19.8H54.528V31ZM67.8304 25.4C67.8304 27.1067 67.2917 28.504 66.2144 29.592C65.1477 30.6693 63.7664 31.208 62.0704 31.208C61.313 31.208 60.593 31.0853 59.9104 30.84C59.2384 30.5947 58.6304 30.2373 58.0864 29.768C57.553 29.2987 57.1264 28.6907 56.8064 27.944C56.497 27.1867 56.3424 26.3387 56.3424 25.4C56.3424 24.1627 56.625 23.096 57.1904 22.2C57.7557 21.2933 58.465 20.632 59.3184 20.216C60.1824 19.7893 61.1157 19.576 62.1184 19.576C62.8437 19.576 63.5424 19.704 64.2144 19.96C64.897 20.2053 65.505 20.5627 66.0384 21.032C66.5824 21.5013 67.0144 22.1147 67.3344 22.872C67.665 23.6187 67.8304 24.4613 67.8304 25.4ZM59.2704 25.4C59.2704 26.3493 59.5477 27.096 60.1024 27.64C60.657 28.1733 61.3184 28.44 62.0864 28.44C62.8437 28.44 63.4997 28.1733 64.0544 27.64C64.6197 27.096 64.9024 26.3493 64.9024 25.4C64.9024 24.4507 64.625 23.7093 64.0704 23.176C63.5157 22.632 62.865 22.36 62.1184 22.36C61.329 22.36 60.657 22.6267 60.1024 23.16C59.5477 23.6827 59.2704 24.4293 59.2704 25.4ZM76.9495 27.016L79.1415 30.568V30.984H76.0375L74.1175 27.48H72.5815V30.984H69.6535V19.784C69.6642 19.784 70.4855 19.784 72.1175 19.784C73.7602 19.7733 74.5815 19.7733 74.5815 19.784C75.8508 19.784 76.8375 20.1787 77.5415 20.968C78.2562 21.7573 78.6135 22.6853 78.6135 23.752C78.5922 25.1813 78.0375 26.2693 76.9495 27.016ZM72.5335 25.096H74.5655C74.9495 25.096 75.2482 24.9573 75.4615 24.68C75.6748 24.4027 75.7815 24.072 75.7815 23.688C75.7815 23.304 75.6748 22.984 75.4615 22.728C75.2588 22.4613 74.9602 22.328 74.5655 22.328H72.5335V25.096ZM80.2181 27.56H83.0021C83.0021 27.9227 83.1781 28.2053 83.5301 28.408C83.8821 28.6107 84.2981 28.712 84.7781 28.712C85.2261 28.712 85.6208 28.616 85.9621 28.424C86.3141 28.232 86.4901 27.976 86.4901 27.656C86.4901 27.4853 86.4581 27.336 86.3941 27.208C86.3408 27.0693 86.2501 26.9627 86.1221 26.888C85.9941 26.8027 85.8768 26.7387 85.7701 26.696C85.6741 26.6427 85.5195 26.6053 85.3061 26.584C85.1035 26.552 84.9595 26.5307 84.8741 26.52C84.7888 26.5093 84.6395 26.4987 84.4261 26.488C83.8821 26.456 83.3755 26.376 82.9061 26.248C82.4475 26.12 82.0155 25.9333 81.6101 25.688C81.2155 25.4427 80.9008 25.112 80.6661 24.696C80.4421 24.2693 80.3301 23.7733 80.3301 23.208C80.3301 22.0453 80.7515 21.144 81.5941 20.504C82.4368 19.864 83.4661 19.544 84.6821 19.544C85.4288 19.544 86.1221 19.6773 86.7621 19.944C87.4128 20.2 87.9461 20.616 88.3621 21.192C88.7888 21.7573 88.9968 22.4293 88.9861 23.208H86.2501C86.2395 22.8453 86.0901 22.5733 85.8021 22.392C85.5141 22.2107 85.1568 22.12 84.7301 22.12C83.7168 22.12 83.2101 22.4613 83.2101 23.144C83.2101 23.496 83.3435 23.7413 83.6101 23.88C83.8875 24.0187 84.3248 24.12 84.9221 24.184C85.4555 24.2267 85.9195 24.2853 86.3141 24.36C86.7088 24.4347 87.1088 24.5573 87.5141 24.728C87.9195 24.888 88.2501 25.0907 88.5061 25.336C88.7621 25.5707 88.9701 25.8907 89.1301 26.296C89.3008 26.6907 89.3861 27.1493 89.3861 27.672C89.3861 28.7813 88.9328 29.656 88.0261 30.296C87.1195 30.936 86.0475 31.256 84.8101 31.256C83.5301 31.256 82.4368 30.936 81.5301 30.296C80.6341 29.656 80.1968 28.744 80.2181 27.56ZM98.1608 19.8V22.344H94.0968V23.944H97.8408V26.504H94.0968V28.328H98.3048V31H91.1688V19.8H98.1608Z" fill="#333333"/>
</svg>
