<svg width="24" height="24" viewBox="0 0 24 24" fill="none" xmlns="http://www.w3.org/2000/svg">
<path d="M6.56795 3.66033C6.49416 3.56541 6.40101 3.48727 6.29471 3.43111C6.1884 3.37496 6.07136 3.34206 5.95136 3.33461C5.83137 3.32717 5.71116 3.34534 5.59872 3.38792C5.48629 3.4305 5.3842 3.49651 5.29923 3.58158L4.00678 4.8753C3.40304 5.48028 3.18055 6.33651 3.44429 7.08774C4.53893 10.1972 6.31957 13.0202 8.65413 15.3475C10.9815 17.6821 13.8045 19.4627 16.9139 20.5574C17.6651 20.8212 18.5213 20.5987 19.1263 19.9949L20.4188 18.7025C20.5038 18.6175 20.5698 18.5154 20.6124 18.403C20.655 18.2905 20.6732 18.1703 20.6657 18.0503C20.6583 17.9303 20.6254 17.8133 20.5692 17.707C20.5131 17.6007 20.4349 17.5075 20.34 17.4337L17.4564 15.1913C17.3549 15.1126 17.237 15.058 17.1114 15.0316C16.9858 15.0052 16.8559 15.0077 16.7314 15.0388L13.994 15.7225C13.6286 15.8139 13.2458 15.809 12.8828 15.7085C12.5198 15.6079 12.1891 15.4151 11.9228 15.1488L8.85287 12.0776C8.58634 11.8114 8.3933 11.4807 8.29253 11.1178C8.19177 10.7548 8.18672 10.3719 8.27789 10.0064L8.96287 7.26899C8.994 7.14449 8.99645 7.01454 8.97004 6.88895C8.94362 6.76337 8.88903 6.64542 8.81038 6.54401L6.56795 3.66033ZM4.35551 2.6391C4.57425 2.4203 4.83703 2.25053 5.12641 2.14107C5.41579 2.03161 5.72515 1.98497 6.03394 2.00423C6.34273 2.0235 6.64388 2.10825 6.91741 2.25283C7.19094 2.39742 7.43058 2.59854 7.62041 2.84285L9.86284 5.72528C10.2741 6.25401 10.4191 6.94275 10.2566 7.59273L9.57285 10.3302C9.5375 10.4719 9.53941 10.6205 9.5784 10.7613C9.61738 10.9021 9.69211 11.0305 9.79534 11.1339L12.8665 14.2051C12.97 14.3085 13.0986 14.3834 13.2397 14.4224C13.3807 14.4614 13.5295 14.4631 13.6715 14.4276L16.4076 13.7438C16.7284 13.6636 17.0632 13.6574 17.3867 13.7256C17.7102 13.7938 18.014 13.9347 18.2751 14.1376L21.1575 16.38C22.1937 17.1862 22.2887 18.7175 21.3612 19.6437L20.0688 20.9362C19.1438 21.8611 17.7613 22.2674 16.4726 21.8136C13.1742 20.6531 10.1794 18.7648 7.71041 16.2888C5.2346 13.8201 3.34631 10.8257 2.18558 7.52773C1.7331 6.24027 2.13933 4.85655 3.06431 3.93157L4.35676 2.6391H4.35551Z" fill="#4762FF"/>
</svg>