<svg width="24" height="24" viewBox="0 0 24 24" fill="none" xmlns="http://www.w3.org/2000/svg">
<path d="M2.31 11.242C2.27324 11.0946 2.27054 10.9408 2.3021 10.7922C2.33366 10.6436 2.39866 10.5042 2.49215 10.3845C2.58565 10.2648 2.70519 10.1679 2.8417 10.1013C2.97821 10.0347 3.1281 10 3.28 10H20.72C20.8719 10 21.0218 10.0347 21.1583 10.1013C21.2948 10.1679 21.4143 10.2648 21.5078 10.3845C21.6013 10.5042 21.6663 10.6436 21.6979 10.7922C21.7295 10.9408 21.7268 11.0946 21.69 11.242L19.879 18.485C19.7708 18.9177 19.5212 19.3018 19.1697 19.5763C18.8182 19.8508 18.385 19.9999 17.939 20H6.061C5.61501 19.9999 5.18183 19.8508 4.83033 19.5763C4.47882 19.3018 4.22915 18.9177 4.121 18.485L2.31 11.243V11.242Z" stroke="#4762FF" stroke-width="2" stroke-linejoin="round"/>
<path d="M10 14C10 13.4477 9.55228 13 9 13C8.44772 13 8 13.4477 8 14H10ZM8 16C8 16.5523 8.44772 17 9 17C9.55228 17 10 16.5523 10 16H8ZM16 14C16 13.4477 15.5523 13 15 13C14.4477 13 14 13.4477 14 14H16ZM14 16C14 16.5523 14.4477 17 15 17C15.5523 17 16 16.5523 16 16H14ZM5.16795 9.4453C4.8616 9.90483 4.98577 10.5257 5.4453 10.8321C5.90483 11.1384 6.5257 11.0142 6.83205 10.5547L5.16795 9.4453ZM10.8321 4.5547C11.1384 4.09517 11.0142 3.4743 10.5547 3.16795C10.0952 2.8616 9.4743 2.98577 9.16795 3.4453L10.8321 4.5547ZM17.1679 10.5547C17.4743 11.0142 18.0952 11.1384 18.5547 10.8321C19.0142 10.5257 19.1384 9.90483 18.8321 9.4453L17.1679 10.5547ZM14.8321 3.4453C14.5257 2.98577 13.9048 2.8616 13.4453 3.16795C12.9858 3.4743 12.8616 4.09517 13.1679 4.5547L14.8321 3.4453ZM8 14V16H10V14H8ZM14 14V16H16V14H14ZM6.83205 10.5547L10.8321 4.5547L9.16795 3.4453L5.16795 9.4453L6.83205 10.5547ZM18.8321 9.4453L14.8321 3.4453L13.1679 4.5547L17.1679 10.5547L18.8321 9.4453Z" fill="#4762FF"/>
</svg>
