<svg width="240" height="240" viewBox="0 0 240 240" fill="none" xmlns="http://www.w3.org/2000/svg">
<path d="M120 13.3333C98.9031 13.3333 78.2801 19.5891 60.7389 31.3098C43.1977 43.0305 29.5259 59.6896 21.4526 79.1804C13.3792 98.6711 11.2669 120.118 15.3826 140.81C19.4984 161.501 29.6574 180.507 44.575 195.425C59.4926 210.342 78.4988 220.501 99.1901 224.617C119.881 228.733 141.329 226.62 160.819 218.547C180.31 210.474 196.969 196.802 208.69 179.261C220.411 161.72 226.666 141.097 226.666 120C226.666 91.7102 215.428 64.5791 195.424 44.5752C175.421 24.5713 148.289 13.3333 120 13.3333V13.3333ZM120 213.333C101.54 213.333 83.4951 207.859 68.1465 197.604C52.7979 187.348 40.8351 172.771 33.771 155.717C26.7068 138.663 24.8585 119.896 28.4598 101.791C32.0611 83.6866 40.9502 67.0562 54.0031 54.0033C67.056 40.9504 83.6864 32.0612 101.791 28.46C119.896 24.8587 138.662 26.707 155.717 33.7712C172.771 40.8353 187.348 52.7981 197.604 68.1467C207.859 83.4953 213.333 101.54 213.333 120C213.333 144.753 203.5 168.493 185.996 185.997C168.493 203.5 144.753 213.333 120 213.333Z" fill="#939496"/>
<path d="M186.667 80.6667C185.417 79.425 183.728 78.728 181.967 78.728C180.205 78.728 178.516 79.425 177.267 80.6667L103.267 154.333L63.2666 114.333C62.0466 113.016 60.3533 112.237 58.5592 112.169C56.7651 112.1 55.0171 112.747 53.6999 113.967C52.3827 115.187 51.604 116.88 51.5352 118.674C51.4665 120.468 52.1132 122.216 53.3332 123.533L103.267 173.333L186.667 90.1333C187.291 89.5136 187.787 88.7762 188.126 87.9638C188.464 87.1514 188.639 86.2801 188.639 85.4C188.639 84.5199 188.464 83.6485 188.126 82.8361C187.787 82.0237 187.291 81.2864 186.667 80.6667Z" fill="#939496"/>
</svg>
